<svg xmlns="http://www.w3.org/2000/svg" width="32" height="32" viewBox="0 0 32 32" fill="none">
  <rect width="32" height="32" rx="8" fill="#062319" />
  <rect x="0.5" y="0.5" width="31" height="31" rx="7.5" stroke="#10b981" stroke-opacity="0.5" />
  <g transform="translate(4, 4) scale(1)">
    <path d="M7 19H4.815a1.83 1.83 0 0 1-1.57-.881 1.785 1.785 0 0 1-.004-1.784L7.196 9.5" stroke="#10b981" stroke-width="2" stroke-linecap="round" stroke-linejoin="round"/>
    <path d="M11 19h8.2" stroke="#10b981" stroke-width="2" stroke-linecap="round" stroke-linejoin="round"/>
    <path d="M20.19 14.5l3.955 6.85a1.785 1.785 0 0 1-.004 1.784 1.83 1.83 0 0 1-1.57.881H17.5" stroke="#10b981" stroke-width="2" stroke-linecap="round" stroke-linejoin="round"/>
    <path d="M16 11l-4-7-4 7" stroke="#10b981" stroke-width="2" stroke-linecap="round" stroke-linejoin="round"/>
  </g>
</svg>
